<svg width="64" height="64" fill="none" xmlns="http://www.w3.org/2000/svg"><path d="M12 32.04l-6-.989-6 1.012A31.999 31.999 0 006.11 50.81l9.708-7.053A19.907 19.907 0 0112 32.04z" fill="color(display-p3 .5529 .5647 .9725)"/><path d="M15.795 20.276l-4.86-4.517-4.861-2.517A32 32 0 000 32h12c0-4.38 1.407-8.43 3.795-11.724z" fill="color(display-p3 .6824 .4941 .9647)"/><path d="M22.05 1.586A32 32 0 006.11 13.19l9.708 7.053a20.044 20.044 0 019.962-7.258l-.865-5.7-2.864-5.7z" fill="color(display-p3 .8706 .4235 .7059)"/><path d="M41.829 1.547a32.001 32.001 0 00-19.718.02l3.707 11.407A19.981 19.981 0 0132 12c2.144 0 4.209.337 6.145.962l2.842-5.708.842-5.707z" fill="color(display-p3 .9216 .4588 .3137)"/><path d="M57.852 13.14A32.002 32.002 0 0041.889 1.566l-3.707 11.408a20.044 20.044 0 019.976 7.238l4.847-2.536 4.847-4.536z" fill="color(display-p3 .9255 .5569 .2627)"/><path d="M52 31.96l6 .989 6-1.012a32 32 0 00-6.111-18.746l-9.707 7.053A19.907 19.907 0 0152 31.96z" fill="color(display-p3 .8902 .702 .2353)"/><path d="M48.205 43.724A19.908 19.908 0 0052 32h12a32 32 0 01-6.074 18.758l-4.86-2.517-4.861-4.517z" fill="color(display-p3 .6863 .6902 .2706)"/><path d="M48.182 43.757a20.043 20.043 0 01-9.962 7.257l.864 5.7 2.865 5.7a32 32 0 0015.94-11.605l-9.707-7.052z" fill="color(display-p3 .4353 .7059 .4627)"/><path d="M38.182 51.026A19.986 19.986 0 0132 52c-2.144 0-4.209-.337-6.145-.962l-2.842 5.708-.842 5.707a32.001 32.001 0 0019.717-.02l-3.706-11.407z" fill="color(display-p3 .3216 .6902 .749)"/><path d="M25.817 51.026a20.044 20.044 0 01-9.976-7.238l-4.846 3.536-4.847 3.536A32.001 32.001 0 0022.11 62.434l3.706-11.408z" fill="color(display-p3 .3647 .6275 .9725)"/></svg>